<svg width="176" height="61" viewBox="0 0 176 61" fill="none" xmlns="http://www.w3.org/2000/svg">
<path d="M0 25.632V0.431999H11.448C14.184 0.431999 16.596 0.959999 18.684 2.016C20.772 3.048 22.404 4.5 23.58 6.372C24.756 8.244 25.344 10.464 25.344 13.032C25.344 15.576 24.756 17.796 23.58 19.692C22.404 21.564 20.772 23.028 18.684 24.084C16.596 25.116 14.184 25.632 11.448 25.632H0ZM5.832 20.844H11.16C12.84 20.844 14.292 20.532 15.516 19.908C16.764 19.26 17.724 18.348 18.396 17.172C19.092 15.996 19.44 14.616 19.44 13.032C19.44 11.424 19.092 10.044 18.396 8.892C17.724 7.716 16.764 6.816 15.516 6.192C14.292 5.544 12.84 5.22 11.16 5.22H5.832V20.844Z" fill="black"/>
<path d="M42.1163 25.632V15.336L43.4483 18.864L32.3603 0.431999H38.5523L47.0483 14.58H43.4843L52.0163 0.431999H57.7403L46.6523 18.864L47.9483 15.336V25.632H42.1163Z" fill="black"/>
<path d="M65.7605 25.632V21.852L81.3485 3.06L82.0685 5.184H66.0485V0.431999H87.2525V4.212L71.7005 23.004L70.9805 20.88H87.7925V25.632H65.7605Z" fill="black"/>
<path d="M98.7328 25.632V0.431999H104.565V25.632H98.7328Z" fill="black"/>
<path d="M129.913 26.064C127.921 26.064 126.085 25.752 124.405 25.128C122.749 24.48 121.297 23.568 120.049 22.392C118.825 21.216 117.865 19.836 117.169 18.252C116.497 16.668 116.161 14.928 116.161 13.032C116.161 11.136 116.497 9.396 117.169 7.812C117.865 6.228 118.837 4.848 120.085 3.672C121.333 2.496 122.797 1.596 124.477 0.971998C126.157 0.323999 128.005 0 130.021 0C132.253 0 134.257 0.372 136.033 1.116C137.833 1.86 139.345 2.94 140.569 4.356L136.825 7.812C135.913 6.852 134.917 6.144 133.837 5.688C132.757 5.208 131.581 4.968 130.309 4.968C129.085 4.968 127.969 5.16 126.961 5.544C125.953 5.928 125.077 6.48 124.333 7.2C123.613 7.92 123.049 8.772 122.641 9.756C122.257 10.74 122.065 11.832 122.065 13.032C122.065 14.208 122.257 15.288 122.641 16.272C123.049 17.256 123.613 18.12 124.333 18.864C125.077 19.584 125.941 20.136 126.925 20.52C127.933 20.904 129.037 21.096 130.237 21.096C131.389 21.096 132.505 20.916 133.585 20.556C134.689 20.172 135.757 19.536 136.789 18.648L140.101 22.86C138.733 23.892 137.137 24.684 135.313 25.236C133.513 25.788 131.713 26.064 129.913 26.064ZM140.101 22.86L134.773 22.104V12.636H140.101V22.86Z" fill="black"/>
<path d="M152.719 25.632V0.431999H157.543L172.411 18.576H170.071V0.431999H175.831V25.632H171.043L156.139 7.488H158.479V25.632H152.719Z" fill="black"/>
<path d="M53.748 60.632V43.832H55.524V59.096H64.932V60.632H53.748Z" fill="black"/>
<path d="M69.9928 60.632L77.6728 43.832H79.4248L87.1048 60.632H85.2328L78.1768 44.864H78.8968L71.8408 60.632H69.9928ZM73.0168 56.144L73.5448 54.704H83.3128L83.8408 56.144H73.0168Z" fill="black"/>
<path d="M94.6839 60.632V43.832H101.932C103.804 43.832 105.252 44.208 106.276 44.96C107.316 45.712 107.836 46.776 107.836 48.152C107.836 49.064 107.62 49.832 107.188 50.456C106.772 51.08 106.196 51.552 105.46 51.872C104.74 52.192 103.948 52.352 103.084 52.352L103.492 51.776C104.564 51.776 105.484 51.944 106.252 52.28C107.036 52.6 107.644 53.088 108.076 53.744C108.508 54.384 108.724 55.184 108.724 56.144C108.724 57.568 108.196 58.672 107.14 59.456C106.1 60.24 104.524 60.632 102.412 60.632H94.6839ZM96.4599 59.168H102.388C103.86 59.168 104.988 58.92 105.772 58.424C106.556 57.912 106.948 57.104 106.948 56C106.948 54.912 106.556 54.12 105.772 53.624C104.988 53.112 103.86 52.856 102.388 52.856H96.2679V51.392H101.812C103.156 51.392 104.196 51.136 104.932 50.624C105.684 50.112 106.06 49.352 106.06 48.344C106.06 47.32 105.684 46.56 104.932 46.064C104.196 45.552 103.156 45.296 101.812 45.296H96.4599V59.168Z" fill="black"/>
<path d="M122.21 60.776C120.962 60.776 119.762 60.576 118.61 60.176C117.474 59.76 116.594 59.232 115.97 58.592L116.666 57.224C117.258 57.8 118.05 58.288 119.042 58.688C120.05 59.072 121.106 59.264 122.21 59.264C123.266 59.264 124.122 59.136 124.778 58.88C125.45 58.608 125.938 58.248 126.242 57.8C126.562 57.352 126.722 56.856 126.722 56.312C126.722 55.656 126.53 55.128 126.146 54.728C125.778 54.328 125.29 54.016 124.682 53.792C124.074 53.552 123.402 53.344 122.666 53.168C121.93 52.992 121.194 52.808 120.458 52.616C119.722 52.408 119.042 52.136 118.418 51.8C117.81 51.464 117.314 51.024 116.93 50.48C116.562 49.92 116.378 49.192 116.378 48.296C116.378 47.464 116.594 46.704 117.026 46.016C117.474 45.312 118.154 44.752 119.066 44.336C119.978 43.904 121.146 43.688 122.57 43.688C123.514 43.688 124.45 43.824 125.378 44.096C126.306 44.352 127.106 44.712 127.778 45.176L127.178 46.592C126.458 46.112 125.69 45.76 124.874 45.536C124.074 45.312 123.298 45.2 122.546 45.2C121.538 45.2 120.706 45.336 120.05 45.608C119.394 45.88 118.906 46.248 118.586 46.712C118.282 47.16 118.13 47.672 118.13 48.248C118.13 48.904 118.314 49.432 118.682 49.832C119.066 50.232 119.562 50.544 120.17 50.768C120.794 50.992 121.474 51.192 122.21 51.368C122.946 51.544 123.674 51.736 124.394 51.944C125.13 52.152 125.802 52.424 126.41 52.76C127.034 53.08 127.53 53.512 127.898 54.056C128.282 54.6 128.474 55.312 128.474 56.192C128.474 57.008 128.25 57.768 127.802 58.472C127.354 59.16 126.666 59.72 125.738 60.152C124.826 60.568 123.65 60.776 122.21 60.776Z" fill="black"/>
</svg>
