<svg width="226" height="79" viewBox="0 0 226 79" fill="none" xmlns="http://www.w3.org/2000/svg">
<g filter="url(#filter0_d_10_146)">
<mask id="path-1-outside-1_10_146" maskUnits="userSpaceOnUse" x="3.01202" y="8" width="179" height="29" fill="black">
<rect fill="white" x="3.01202" y="8" width="179" height="29"/>
<path d="M5.00002 35V9.8H16.448C19.184 9.8 21.596 10.328 23.684 11.384C25.772 12.416 27.404 13.868 28.58 15.74C29.756 17.612 30.344 19.832 30.344 22.4C30.344 24.944 29.756 27.164 28.58 29.06C27.404 30.932 25.772 32.396 23.684 33.452C21.596 34.484 19.184 35 16.448 35H5.00002ZM10.832 30.212H16.16C17.84 30.212 19.292 29.9 20.516 29.276C21.764 28.628 22.724 27.716 23.396 26.54C24.092 25.364 24.44 23.984 24.44 22.4C24.44 20.792 24.092 19.412 23.396 18.26C22.724 17.084 21.764 16.184 20.516 15.56C19.292 14.912 17.84 14.588 16.16 14.588H10.832V30.212ZM47.1164 35V24.704L48.4484 28.232L37.3604 9.8H43.5524L52.0484 23.948H48.4844L57.0164 9.8H62.7404L51.6524 28.232L52.9484 24.704V35H47.1164ZM70.7605 35V31.22L86.3485 12.428L87.0685 14.552H71.0485V9.8H92.2525V13.58L76.7005 32.372L75.9805 30.248H92.7925V35H70.7605ZM103.733 35V9.8H109.565V35H103.733ZM134.913 35.432C132.921 35.432 131.085 35.12 129.405 34.496C127.749 33.848 126.297 32.936 125.049 31.76C123.825 30.584 122.865 29.204 122.169 27.62C121.497 26.036 121.161 24.296 121.161 22.4C121.161 20.504 121.497 18.764 122.169 17.18C122.865 15.596 123.837 14.216 125.085 13.04C126.333 11.864 127.797 10.964 129.477 10.34C131.157 9.692 133.005 9.368 135.021 9.368C137.253 9.368 139.257 9.74 141.033 10.484C142.833 11.228 144.345 12.308 145.569 13.724L141.825 17.18C140.913 16.22 139.917 15.512 138.837 15.056C137.757 14.576 136.581 14.336 135.309 14.336C134.085 14.336 132.969 14.528 131.961 14.912C130.953 15.296 130.077 15.848 129.333 16.568C128.613 17.288 128.049 18.14 127.641 19.124C127.257 20.108 127.065 21.2 127.065 22.4C127.065 23.576 127.257 24.656 127.641 25.64C128.049 26.624 128.613 27.488 129.333 28.232C130.077 28.952 130.941 29.504 131.925 29.888C132.933 30.272 134.037 30.464 135.237 30.464C136.389 30.464 137.505 30.284 138.585 29.924C139.689 29.54 140.757 28.904 141.789 28.016L145.101 32.228C143.733 33.26 142.137 34.052 140.313 34.604C138.513 35.156 136.713 35.432 134.913 35.432ZM145.101 32.228L139.773 31.472V22.004H145.101V32.228ZM157.719 35V9.8H162.543L177.411 27.944H175.071V9.8H180.831V35H176.043L161.139 16.856H163.479V35H157.719Z"/>
</mask>
<path d="M5.00002 35V9.8H16.448C19.184 9.8 21.596 10.328 23.684 11.384C25.772 12.416 27.404 13.868 28.58 15.74C29.756 17.612 30.344 19.832 30.344 22.4C30.344 24.944 29.756 27.164 28.58 29.06C27.404 30.932 25.772 32.396 23.684 33.452C21.596 34.484 19.184 35 16.448 35H5.00002ZM10.832 30.212H16.16C17.84 30.212 19.292 29.9 20.516 29.276C21.764 28.628 22.724 27.716 23.396 26.54C24.092 25.364 24.44 23.984 24.44 22.4C24.44 20.792 24.092 19.412 23.396 18.26C22.724 17.084 21.764 16.184 20.516 15.56C19.292 14.912 17.84 14.588 16.16 14.588H10.832V30.212ZM47.1164 35V24.704L48.4484 28.232L37.3604 9.8H43.5524L52.0484 23.948H48.4844L57.0164 9.8H62.7404L51.6524 28.232L52.9484 24.704V35H47.1164ZM70.7605 35V31.22L86.3485 12.428L87.0685 14.552H71.0485V9.8H92.2525V13.58L76.7005 32.372L75.9805 30.248H92.7925V35H70.7605ZM103.733 35V9.8H109.565V35H103.733ZM134.913 35.432C132.921 35.432 131.085 35.12 129.405 34.496C127.749 33.848 126.297 32.936 125.049 31.76C123.825 30.584 122.865 29.204 122.169 27.62C121.497 26.036 121.161 24.296 121.161 22.4C121.161 20.504 121.497 18.764 122.169 17.18C122.865 15.596 123.837 14.216 125.085 13.04C126.333 11.864 127.797 10.964 129.477 10.34C131.157 9.692 133.005 9.368 135.021 9.368C137.253 9.368 139.257 9.74 141.033 10.484C142.833 11.228 144.345 12.308 145.569 13.724L141.825 17.18C140.913 16.22 139.917 15.512 138.837 15.056C137.757 14.576 136.581 14.336 135.309 14.336C134.085 14.336 132.969 14.528 131.961 14.912C130.953 15.296 130.077 15.848 129.333 16.568C128.613 17.288 128.049 18.14 127.641 19.124C127.257 20.108 127.065 21.2 127.065 22.4C127.065 23.576 127.257 24.656 127.641 25.64C128.049 26.624 128.613 27.488 129.333 28.232C130.077 28.952 130.941 29.504 131.925 29.888C132.933 30.272 134.037 30.464 135.237 30.464C136.389 30.464 137.505 30.284 138.585 29.924C139.689 29.54 140.757 28.904 141.789 28.016L145.101 32.228C143.733 33.26 142.137 34.052 140.313 34.604C138.513 35.156 136.713 35.432 134.913 35.432ZM145.101 32.228L139.773 31.472V22.004H145.101V32.228ZM157.719 35V9.8H162.543L177.411 27.944H175.071V9.8H180.831V35H176.043L161.139 16.856H163.479V35H157.719Z" fill="black"/>
<path d="M5.00002 35H4.00002V36H5.00002V35ZM5.00002 9.8V8.8H4.00002V9.8H5.00002ZM23.684 11.384L23.2327 12.2764L23.2409 12.2805L23.684 11.384ZM28.58 29.06L29.4268 29.592L29.4298 29.5871L28.58 29.06ZM23.684 33.452L24.1271 34.3485L24.1353 34.3444L23.684 33.452ZM10.832 30.212H9.83202V31.212H10.832V30.212ZM20.516 29.276L20.9702 30.1669L20.9768 30.1635L20.516 29.276ZM23.396 26.54L22.5354 26.0307L22.5316 26.0372L22.5278 26.0439L23.396 26.54ZM23.396 18.26L22.5278 18.7561L22.5338 18.7667L22.5401 18.7771L23.396 18.26ZM20.516 15.56L20.0481 16.4438L20.0584 16.4492L20.0688 16.4544L20.516 15.56ZM10.832 14.588V13.588H9.83202V14.588H10.832ZM5.00002 35H6.00002V9.8H5.00002H4.00002V35H5.00002ZM5.00002 9.8V10.8H16.448V9.8V8.8H5.00002V9.8ZM16.448 9.8V10.8C19.0537 10.8 21.3065 11.3022 23.2327 12.2764L23.684 11.384L24.1353 10.4916C21.8855 9.35381 19.3143 8.8 16.448 8.8V9.8ZM23.684 11.384L23.2409 12.2805C25.1726 13.2352 26.6609 14.565 27.7332 16.2719L28.58 15.74L29.4268 15.208C28.1471 13.171 26.3715 11.5968 24.1271 10.4875L23.684 11.384ZM28.58 15.74L27.7332 16.2719C28.7938 17.9602 29.344 19.9892 29.344 22.4H30.344H31.344C31.344 19.6748 30.7182 17.2638 29.4268 15.208L28.58 15.74ZM30.344 22.4H29.344C29.344 24.7845 28.7948 26.8165 27.7302 28.5329L28.58 29.06L29.4298 29.5871C30.7172 27.5115 31.344 25.1035 31.344 22.4H30.344ZM28.58 29.06L27.7332 28.528C26.6596 30.2371 25.1685 31.5806 23.2327 32.5596L23.684 33.452L24.1353 34.3444C26.3756 33.2114 28.1484 31.6269 29.4268 29.5919L28.58 29.06ZM23.684 33.452L23.2409 32.5555C21.3128 33.5085 19.0571 34 16.448 34V35V36C19.311 36 21.8792 35.4595 24.1271 34.3485L23.684 33.452ZM16.448 35V34H5.00002V35V36H16.448V35ZM10.832 30.212V31.212H16.16V30.212V29.212H10.832V30.212ZM16.16 30.212V31.212C17.9632 31.212 19.5776 30.8769 20.9702 30.1669L20.516 29.276L20.0618 28.3851C19.0064 28.9231 17.7168 29.212 16.16 29.212V30.212ZM20.516 29.276L20.9768 30.1635C22.3886 29.4305 23.4931 28.3856 24.2643 27.0361L23.396 26.54L22.5278 26.0439C21.9549 27.0464 21.1395 27.8255 20.0552 28.3885L20.516 29.276ZM23.396 26.54L24.2566 27.0493C25.0576 25.696 25.44 24.1343 25.44 22.4H24.44H23.44C23.44 23.8337 23.1265 25.032 22.5354 26.0307L23.396 26.54ZM24.44 22.4H25.44C25.44 20.6454 25.0591 19.0789 24.2519 17.7429L23.396 18.26L22.5401 18.7771C23.1249 19.7451 23.44 20.9386 23.44 22.4H24.44ZM23.396 18.26L24.2643 17.7639C23.4912 16.411 22.3822 15.375 20.9632 14.6656L20.516 15.56L20.0688 16.4544C21.1459 16.993 21.9568 17.757 22.5278 18.7561L23.396 18.26ZM20.516 15.56L20.9839 14.6762C19.5881 13.9373 17.9687 13.588 16.16 13.588V14.588V15.588C17.7113 15.588 18.9959 15.8867 20.0481 16.4438L20.516 15.56ZM16.16 14.588V13.588H10.832V14.588V15.588H16.16V14.588ZM10.832 14.588H9.83202V30.212H10.832H11.832V14.588H10.832ZM47.1164 35H46.1164V36H47.1164V35ZM47.1164 24.704L48.0519 24.3508L46.1164 24.704H47.1164ZM48.4484 28.232L47.5915 28.7475L49.3839 27.8788L48.4484 28.232ZM37.3604 9.8V8.8H35.5918L36.5035 10.3155L37.3604 9.8ZM43.5524 9.8L44.4097 9.28518L44.1183 8.8H43.5524V9.8ZM52.0484 23.948V24.948H53.8153L52.9057 23.4332L52.0484 23.948ZM48.4844 23.948L47.628 23.4316L46.7136 24.948H48.4844V23.948ZM57.0164 9.8V8.8H56.4517L56.16 9.28358L57.0164 9.8ZM62.7404 9.8L63.5973 10.3155L64.5089 8.8H62.7404V9.8ZM51.6524 28.232L50.7137 27.8872L52.5093 28.7475L51.6524 28.232ZM52.9484 24.704H53.9484L52.0097 24.3592L52.9484 24.704ZM52.9484 35V36H53.9484V35H52.9484ZM47.1164 35H48.1164V24.704H47.1164H46.1164V35H47.1164ZM47.1164 24.704L46.1808 25.0572L47.5128 28.5852L48.4484 28.232L49.3839 27.8788L48.0519 24.3508L47.1164 24.704ZM48.4484 28.232L49.3053 27.7165L38.2173 9.28452L37.3604 9.8L36.5035 10.3155L47.5915 28.7475L48.4484 28.232ZM37.3604 9.8V10.8H43.5524V9.8V8.8H37.3604V9.8ZM43.5524 9.8L42.6951 10.3148L51.1911 24.4628L52.0484 23.948L52.9057 23.4332L44.4097 9.28518L43.5524 9.8ZM52.0484 23.948V22.948H48.4844V23.948V24.948H52.0484V23.948ZM48.4844 23.948L49.3407 24.4644L57.8727 10.3164L57.0164 9.8L56.16 9.28358L47.628 23.4316L48.4844 23.948ZM57.0164 9.8V10.8H62.7404V9.8V8.8H57.0164V9.8ZM62.7404 9.8L61.8835 9.28452L50.7955 27.7165L51.6524 28.232L52.5093 28.7475L63.5973 10.3155L62.7404 9.8ZM51.6524 28.232L52.591 28.5768L53.887 25.0488L52.9484 24.704L52.0097 24.3592L50.7137 27.8872L51.6524 28.232ZM52.9484 24.704H51.9484V35H52.9484H53.9484V24.704H52.9484ZM52.9484 35V34H47.1164V35V36H52.9484V35ZM70.7605 35H69.7605V36H70.7605V35ZM70.7605 31.22L69.9908 30.5816L69.7605 30.8592V31.22H70.7605ZM86.3485 12.428L87.2956 12.107L86.7211 10.4124L85.5788 11.7896L86.3485 12.428ZM87.0685 14.552V15.552H88.4634L88.0156 14.231L87.0685 14.552ZM71.0485 14.552H70.0485V15.552H71.0485V14.552ZM71.0485 9.8V8.8H70.0485V9.8H71.0485ZM92.2525 9.8H93.2525V8.8H92.2525V9.8ZM92.2525 13.58L93.0229 14.2176L93.2525 13.9401V13.58H92.2525ZM76.7005 32.372L75.7534 32.693L76.3286 34.3898L77.4709 33.0096L76.7005 32.372ZM75.9805 30.248V29.248H74.5856L75.0334 30.569L75.9805 30.248ZM92.7925 30.248H93.7925V29.248H92.7925V30.248ZM92.7925 35V36H93.7925V35H92.7925ZM70.7605 35H71.7605V31.22H70.7605H69.7605V35H70.7605ZM70.7605 31.22L71.5302 31.8584L87.1182 13.0664L86.3485 12.428L85.5788 11.7896L69.9908 30.5816L70.7605 31.22ZM86.3485 12.428L85.4014 12.749L86.1214 14.873L87.0685 14.552L88.0156 14.231L87.2956 12.107L86.3485 12.428ZM87.0685 14.552V13.552H71.0485V14.552V15.552H87.0685V14.552ZM71.0485 14.552H72.0485V9.8H71.0485H70.0485V14.552H71.0485ZM71.0485 9.8V10.8H92.2525V9.8V8.8H71.0485V9.8ZM92.2525 9.8H91.2525V13.58H92.2525H93.2525V9.8H92.2525ZM92.2525 13.58L91.4821 12.9424L75.9301 31.7344L76.7005 32.372L77.4709 33.0096L93.0229 14.2176L92.2525 13.58ZM76.7005 32.372L77.6476 32.051L76.9276 29.927L75.9805 30.248L75.0334 30.569L75.7534 32.693L76.7005 32.372ZM75.9805 30.248V31.248H92.7925V30.248V29.248H75.9805V30.248ZM92.7925 30.248H91.7925V35H92.7925H93.7925V30.248H92.7925ZM92.7925 35V34H70.7605V35V36H92.7925V35ZM103.733 35H102.733V36H103.733V35ZM103.733 9.8V8.8H102.733V9.8H103.733ZM109.565 9.8H110.565V8.8H109.565V9.8ZM109.565 35V36H110.565V35H109.565ZM103.733 35H104.733V9.8H103.733H102.733V35H103.733ZM103.733 9.8V10.8H109.565V9.8V8.8H103.733V9.8ZM109.565 9.8H108.565V35H109.565H110.565V9.8H109.565ZM109.565 35V34H103.733V35V36H109.565V35ZM129.405 34.496L129.041 35.4272L129.049 35.4304L129.057 35.4334L129.405 34.496ZM125.049 31.76L124.356 32.4811L124.364 32.4878L125.049 31.76ZM122.169 27.62L121.249 28.0106L121.254 28.0223L122.169 27.62ZM122.169 17.18L121.254 16.7777L121.249 16.7894L122.169 17.18ZM125.085 13.04L125.771 13.7678V13.7678L125.085 13.04ZM129.477 10.34L129.826 11.2775L129.837 11.273L129.477 10.34ZM141.033 10.484L140.647 11.4063L140.651 11.4082L141.033 10.484ZM145.569 13.724L146.248 14.4588L146.959 13.8023L146.326 13.07L145.569 13.724ZM141.825 17.18L141.1 17.8687L141.779 18.5834L142.504 17.9148L141.825 17.18ZM138.837 15.056L138.431 15.9698L138.44 15.9736L138.448 15.9772L138.837 15.056ZM129.333 16.568L128.638 15.8494L128.632 15.8551L128.626 15.8609L129.333 16.568ZM127.641 19.124L126.718 18.741L126.714 18.7507L126.71 18.7605L127.641 19.124ZM127.641 25.64L126.71 26.0035L126.714 26.0133L126.718 26.023L127.641 25.64ZM129.333 28.232L128.615 28.9274L128.626 28.9392L128.638 28.9506L129.333 28.232ZM131.925 29.888L131.562 30.8196L131.569 30.8225L131.925 29.888ZM138.585 29.924L138.902 30.8728L138.914 30.8685L138.585 29.924ZM141.789 28.016L142.575 27.3979L141.929 26.5763L141.137 27.258L141.789 28.016ZM145.101 32.228L145.704 33.0263L146.518 32.4119L145.887 31.6099L145.101 32.228ZM140.313 34.604L140.024 33.6469L140.02 33.6479L140.313 34.604ZM145.101 32.228L144.961 33.2181L146.101 33.3799V32.228H145.101ZM139.773 31.472H138.773V32.3401L139.633 32.4621L139.773 31.472ZM139.773 22.004V21.004H138.773V22.004H139.773ZM145.101 22.004H146.101V21.004H145.101V22.004ZM134.913 35.432V34.432C133.027 34.432 131.31 34.1368 129.754 33.5586L129.405 34.496L129.057 35.4334C130.86 36.1032 132.816 36.432 134.913 36.432V35.432ZM129.405 34.496L129.77 33.5648C128.228 32.9616 126.887 32.1172 125.735 31.0322L125.049 31.76L124.364 32.4878C125.708 33.7548 127.27 34.7344 129.041 35.4272L129.405 34.496ZM125.049 31.76L125.742 31.0389C124.614 29.9554 123.729 28.6843 123.085 27.2177L122.169 27.62L121.254 28.0223C122.001 29.7237 123.036 31.2126 124.357 32.4811L125.049 31.76ZM122.169 27.62L123.09 27.2295C122.475 25.781 122.161 24.1755 122.161 22.4H121.161H120.161C120.161 24.4165 120.519 26.291 121.249 28.0105L122.169 27.62ZM121.161 22.4H122.161C122.161 20.6245 122.475 19.019 123.09 17.5705L122.169 17.18L121.249 16.7894C120.519 18.509 120.161 20.3835 120.161 22.4H121.161ZM122.169 17.18L123.085 17.5823C123.727 16.12 124.622 14.8509 125.771 13.7678L125.085 13.04L124.4 12.3122C123.053 13.5811 122.003 15.072 121.254 16.7777L122.169 17.18ZM125.085 13.04L125.771 13.7678C126.917 12.6877 128.265 11.857 129.826 11.2774L129.477 10.34L129.129 9.40257C127.329 10.071 125.749 11.0403 124.4 12.3122L125.085 13.04ZM129.477 10.34L129.837 11.273C131.389 10.6743 133.114 10.368 135.021 10.368V9.368V8.368C132.897 8.368 130.925 8.70973 129.117 9.407L129.477 10.34ZM135.021 9.368V10.368C137.142 10.368 139.011 10.7211 140.647 11.4063L141.033 10.484L141.42 9.56166C139.503 8.7589 137.365 8.368 135.021 8.368V9.368ZM141.033 10.484L140.651 11.4082C142.313 12.0951 143.695 13.0849 144.813 14.378L145.569 13.724L146.326 13.07C144.996 11.5311 143.354 10.3609 141.415 9.55983L141.033 10.484ZM145.569 13.724L144.891 12.9892L141.147 16.4452L141.825 17.18L142.504 17.9148L146.248 14.4588L145.569 13.724ZM141.825 17.18L142.55 16.4912C141.556 15.4444 140.449 14.6508 139.226 14.1348L138.837 15.056L138.448 15.9772C139.386 16.3732 140.271 16.9956 141.1 17.8687L141.825 17.18ZM138.837 15.056L139.243 14.1422C138.026 13.6011 136.71 13.336 135.309 13.336V14.336V15.336C136.452 15.336 137.489 15.5509 138.431 15.9698L138.837 15.056ZM135.309 14.336V13.336C133.98 13.336 132.741 13.5448 131.605 13.9775L131.961 14.912L132.317 15.8465C133.197 15.5112 134.191 15.336 135.309 15.336V14.336ZM131.961 14.912L131.605 13.9775C130.476 14.4077 129.483 15.0312 128.638 15.8494L129.333 16.568L130.029 17.2866C130.671 16.6648 131.431 16.1843 132.317 15.8465L131.961 14.912ZM129.333 16.568L128.626 15.8609C127.809 16.6779 127.173 17.6415 126.718 18.741L127.641 19.124L128.565 19.507C128.925 18.6385 129.417 17.8981 130.04 17.2751L129.333 16.568ZM127.641 19.124L126.71 18.7605C126.275 19.875 126.065 21.0924 126.065 22.4H127.065H128.065C128.065 21.3076 128.24 20.341 128.573 19.4875L127.641 19.124ZM127.065 22.4H126.065C126.065 23.6863 126.276 24.8913 126.71 26.0035L127.641 25.64L128.573 25.2765C128.239 24.4207 128.065 23.4657 128.065 22.4H127.065ZM127.641 25.64L126.718 26.023C127.172 27.1197 127.805 28.0905 128.615 28.9274L129.333 28.232L130.052 27.5366C129.422 26.8855 128.926 26.1283 128.565 25.257L127.641 25.64ZM129.333 28.232L128.638 28.9506C129.479 29.7648 130.457 30.3883 131.562 30.8196L131.925 29.888L132.289 28.9564C131.426 28.6197 130.675 28.1392 130.029 27.5134L129.333 28.232ZM131.925 29.888L131.569 30.8225C132.703 31.2544 133.929 31.464 135.237 31.464V30.464V29.464C134.145 29.464 133.164 29.2896 132.281 28.9535L131.925 29.888ZM135.237 30.464V31.464C136.496 31.464 137.718 31.2671 138.902 30.8727L138.585 29.924L138.269 28.9753C137.292 29.3009 136.283 29.464 135.237 29.464V30.464ZM138.585 29.924L138.914 30.8685C140.154 30.437 141.33 29.7307 142.442 28.774L141.789 28.016L141.137 27.258C140.185 28.0773 139.224 28.643 138.257 28.9795L138.585 29.924ZM141.789 28.016L141.003 28.6341L144.315 32.8461L145.101 32.228L145.887 31.6099L142.575 27.3979L141.789 28.016ZM145.101 32.228L144.499 31.4297C143.235 32.3832 141.748 33.1252 140.024 33.6469L140.313 34.604L140.603 35.5611C142.527 34.9788 144.232 34.1368 145.704 33.0263L145.101 32.228ZM140.313 34.604L140.02 33.6479C138.311 34.1722 136.609 34.432 134.913 34.432V35.432V36.432C136.817 36.432 138.716 36.1398 140.607 35.5601L140.313 34.604ZM145.101 32.228L145.242 31.2379L139.914 30.4819L139.773 31.472L139.633 32.4621L144.961 33.2181L145.101 32.228ZM139.773 31.472H140.773V22.004H139.773H138.773V31.472H139.773ZM139.773 22.004V23.004H145.101V22.004V21.004H139.773V22.004ZM145.101 22.004H144.101V32.228H145.101H146.101V22.004H145.101ZM157.719 35H156.719V36H157.719V35ZM157.719 9.8V8.8H156.719V9.8H157.719ZM162.543 9.8L163.316 9.16618L163.016 8.8H162.543V9.8ZM177.411 27.944V28.944H179.523L178.184 27.3102L177.411 27.944ZM175.071 27.944H174.071V28.944H175.071V27.944ZM175.071 9.8V8.8H174.071V9.8H175.071ZM180.831 9.8H181.831V8.8H180.831V9.8ZM180.831 35V36H181.831V35H180.831ZM176.043 35L175.27 35.6347L175.57 36H176.043V35ZM161.139 16.856V15.856H159.023L160.366 17.4907L161.139 16.856ZM163.479 16.856H164.479V15.856H163.479V16.856ZM163.479 35V36H164.479V35H163.479ZM157.719 35H158.719V9.8H157.719H156.719V35H157.719ZM157.719 9.8V10.8H162.543V9.8V8.8H157.719V9.8ZM162.543 9.8L161.769 10.4338L176.637 28.5778L177.411 27.944L178.184 27.3102L163.316 9.16618L162.543 9.8ZM177.411 27.944V26.944H175.071V27.944V28.944H177.411V27.944ZM175.071 27.944H176.071V9.8H175.071H174.071V27.944H175.071ZM175.071 9.8V10.8H180.831V9.8V8.8H175.071V9.8ZM180.831 9.8H179.831V35H180.831H181.831V9.8H180.831ZM180.831 35V34H176.043V35V36H180.831V35ZM176.043 35L176.816 34.3653L161.911 16.2213L161.139 16.856L160.366 17.4907L175.27 35.6347L176.043 35ZM161.139 16.856V17.856H163.479V16.856V15.856H161.139V16.856ZM163.479 16.856H162.479V35H163.479H164.479V16.856H163.479ZM163.479 35V34H157.719V35V36H163.479V35Z" fill="black" mask="url(#path-1-outside-1_10_146)"/>
<path d="M58.748 70V53.2H60.524V68.464H69.932V70H58.748ZM74.9928 70L82.6728 53.2H84.4248L92.1048 70H90.2328L83.1768 54.232H83.8968L76.8408 70H74.9928ZM78.0168 65.512L78.5448 64.072H88.3128L88.8408 65.512H78.0168ZM99.684 70V53.2H106.932C108.804 53.2 110.252 53.576 111.276 54.328C112.316 55.08 112.836 56.144 112.836 57.52C112.836 58.432 112.62 59.2 112.188 59.824C111.772 60.448 111.196 60.92 110.46 61.24C109.74 61.56 108.948 61.72 108.084 61.72L108.492 61.144C109.564 61.144 110.484 61.312 111.252 61.648C112.036 61.968 112.644 62.456 113.076 63.112C113.508 63.752 113.724 64.552 113.724 65.512C113.724 66.936 113.196 68.04 112.14 68.824C111.1 69.608 109.524 70 107.412 70H99.684ZM101.46 68.536H107.388C108.86 68.536 109.988 68.288 110.772 67.792C111.556 67.28 111.948 66.472 111.948 65.368C111.948 64.28 111.556 63.488 110.772 62.992C109.988 62.48 108.86 62.224 107.388 62.224H101.268V60.76H106.812C108.156 60.76 109.196 60.504 109.932 59.992C110.684 59.48 111.06 58.72 111.06 57.712C111.06 56.688 110.684 55.928 109.932 55.432C109.196 54.92 108.156 54.664 106.812 54.664H101.46V68.536ZM127.21 70.144C125.962 70.144 124.762 69.944 123.61 69.544C122.474 69.128 121.594 68.6 120.97 67.96L121.666 66.592C122.258 67.168 123.05 67.656 124.042 68.056C125.05 68.44 126.106 68.632 127.21 68.632C128.266 68.632 129.122 68.504 129.778 68.248C130.45 67.976 130.938 67.616 131.242 67.168C131.562 66.72 131.722 66.224 131.722 65.68C131.722 65.024 131.53 64.496 131.146 64.096C130.778 63.696 130.29 63.384 129.682 63.16C129.074 62.92 128.402 62.712 127.666 62.536C126.93 62.36 126.194 62.176 125.458 61.984C124.722 61.776 124.042 61.504 123.418 61.168C122.81 60.832 122.314 60.392 121.93 59.848C121.562 59.288 121.378 58.56 121.378 57.664C121.378 56.832 121.594 56.072 122.026 55.384C122.474 54.68 123.154 54.12 124.066 53.704C124.978 53.272 126.146 53.056 127.57 53.056C128.514 53.056 129.45 53.192 130.378 53.464C131.306 53.72 132.106 54.08 132.778 54.544L132.178 55.96C131.458 55.48 130.69 55.128 129.874 54.904C129.074 54.68 128.298 54.568 127.546 54.568C126.538 54.568 125.706 54.704 125.05 54.976C124.394 55.248 123.906 55.616 123.586 56.08C123.282 56.528 123.13 57.04 123.13 57.616C123.13 58.272 123.314 58.8 123.682 59.2C124.066 59.6 124.562 59.912 125.17 60.136C125.794 60.36 126.474 60.56 127.21 60.736C127.946 60.912 128.674 61.104 129.394 61.312C130.13 61.52 130.802 61.792 131.41 62.128C132.034 62.448 132.53 62.88 132.898 63.424C133.282 63.968 133.474 64.68 133.474 65.56C133.474 66.376 133.25 67.136 132.802 67.84C132.354 68.528 131.666 69.088 130.738 69.52C129.826 69.936 128.65 70.144 127.21 70.144Z" fill="black"/>
</g>
<defs>
<filter id="filter0_d_10_146" x="0" y="8.36804" width="185.831" height="69.776" filterUnits="userSpaceOnUse" color-interpolation-filters="sRGB">
<feFlood flood-opacity="0" result="BackgroundImageFix"/>
<feColorMatrix in="SourceAlpha" type="matrix" values="0 0 0 0 0 0 0 0 0 0 0 0 0 0 0 0 0 0 127 0" result="hardAlpha"/>
<feOffset dy="4"/>
<feGaussianBlur stdDeviation="2"/>
<feComposite in2="hardAlpha" operator="out"/>
<feColorMatrix type="matrix" values="0 0 0 0 0 0 0 0 0 0 0 0 0 0 0 0 0 0 0.25 0"/>
<feBlend mode="normal" in2="BackgroundImageFix" result="effect1_dropShadow_10_146"/>
<feBlend mode="normal" in="SourceGraphic" in2="effect1_dropShadow_10_146" result="shape"/>
</filter>
</defs>
</svg>
