<svg width="223" height="77" viewBox="0 0 223 77" fill="none" xmlns="http://www.w3.org/2000/svg">
<mask id="path-1-outside-1_10_146" maskUnits="userSpaceOnUse" x="1" y="8" width="179" height="29" fill="black">
<rect fill="white" x="1" y="8" width="179" height="29"/>
<path d="M2.988 35V9.8H14.436C17.172 9.8 19.584 10.328 21.672 11.384C23.76 12.416 25.392 13.868 26.568 15.74C27.744 17.612 28.332 19.832 28.332 22.4C28.332 24.944 27.744 27.164 26.568 29.06C25.392 30.932 23.76 32.396 21.672 33.452C19.584 34.484 17.172 35 14.436 35H2.988ZM8.82 30.212H14.148C15.828 30.212 17.28 29.9 18.504 29.276C19.752 28.628 20.712 27.716 21.384 26.54C22.08 25.364 22.428 23.984 22.428 22.4C22.428 20.792 22.08 19.412 21.384 18.26C20.712 17.084 19.752 16.184 18.504 15.56C17.28 14.912 15.828 14.588 14.148 14.588H8.82V30.212ZM45.1043 35V24.704L46.4363 28.232L35.3483 9.8H41.5403L50.0363 23.948H46.4723L55.0043 9.8H60.7283L49.6403 28.232L50.9363 24.704V35H45.1043ZM68.7485 35V31.22L84.3365 12.428L85.0565 14.552H69.0365V9.8H90.2405V13.58L74.6885 32.372L73.9685 30.248H90.7805V35H68.7485ZM101.721 35V9.8H107.553V35H101.721ZM132.901 35.432C130.909 35.432 129.073 35.12 127.393 34.496C125.737 33.848 124.285 32.936 123.037 31.76C121.813 30.584 120.853 29.204 120.157 27.62C119.485 26.036 119.149 24.296 119.149 22.4C119.149 20.504 119.485 18.764 120.157 17.18C120.853 15.596 121.825 14.216 123.073 13.04C124.321 11.864 125.785 10.964 127.465 10.34C129.145 9.692 130.993 9.368 133.009 9.368C135.241 9.368 137.245 9.74 139.021 10.484C140.821 11.228 142.333 12.308 143.557 13.724L139.813 17.18C138.901 16.22 137.905 15.512 136.825 15.056C135.745 14.576 134.569 14.336 133.297 14.336C132.073 14.336 130.957 14.528 129.949 14.912C128.941 15.296 128.065 15.848 127.321 16.568C126.601 17.288 126.037 18.14 125.629 19.124C125.245 20.108 125.053 21.2 125.053 22.4C125.053 23.576 125.245 24.656 125.629 25.64C126.037 26.624 126.601 27.488 127.321 28.232C128.065 28.952 128.929 29.504 129.913 29.888C130.921 30.272 132.025 30.464 133.225 30.464C134.377 30.464 135.493 30.284 136.573 29.924C137.677 29.54 138.745 28.904 139.777 28.016L143.089 32.228C141.721 33.26 140.125 34.052 138.301 34.604C136.501 35.156 134.701 35.432 132.901 35.432ZM143.089 32.228L137.761 31.472V22.004H143.089V32.228ZM155.707 35V9.8H160.531L175.399 27.944H173.059V9.8H178.819V35H174.031L159.127 16.856H161.467V35H155.707Z"/>
</mask>
<path d="M2.988 35V9.8H14.436C17.172 9.8 19.584 10.328 21.672 11.384C23.76 12.416 25.392 13.868 26.568 15.74C27.744 17.612 28.332 19.832 28.332 22.4C28.332 24.944 27.744 27.164 26.568 29.06C25.392 30.932 23.76 32.396 21.672 33.452C19.584 34.484 17.172 35 14.436 35H2.988ZM8.82 30.212H14.148C15.828 30.212 17.28 29.9 18.504 29.276C19.752 28.628 20.712 27.716 21.384 26.54C22.08 25.364 22.428 23.984 22.428 22.4C22.428 20.792 22.08 19.412 21.384 18.26C20.712 17.084 19.752 16.184 18.504 15.56C17.28 14.912 15.828 14.588 14.148 14.588H8.82V30.212ZM45.1043 35V24.704L46.4363 28.232L35.3483 9.8H41.5403L50.0363 23.948H46.4723L55.0043 9.8H60.7283L49.6403 28.232L50.9363 24.704V35H45.1043ZM68.7485 35V31.22L84.3365 12.428L85.0565 14.552H69.0365V9.8H90.2405V13.58L74.6885 32.372L73.9685 30.248H90.7805V35H68.7485ZM101.721 35V9.8H107.553V35H101.721ZM132.901 35.432C130.909 35.432 129.073 35.12 127.393 34.496C125.737 33.848 124.285 32.936 123.037 31.76C121.813 30.584 120.853 29.204 120.157 27.62C119.485 26.036 119.149 24.296 119.149 22.4C119.149 20.504 119.485 18.764 120.157 17.18C120.853 15.596 121.825 14.216 123.073 13.04C124.321 11.864 125.785 10.964 127.465 10.34C129.145 9.692 130.993 9.368 133.009 9.368C135.241 9.368 137.245 9.74 139.021 10.484C140.821 11.228 142.333 12.308 143.557 13.724L139.813 17.18C138.901 16.22 137.905 15.512 136.825 15.056C135.745 14.576 134.569 14.336 133.297 14.336C132.073 14.336 130.957 14.528 129.949 14.912C128.941 15.296 128.065 15.848 127.321 16.568C126.601 17.288 126.037 18.14 125.629 19.124C125.245 20.108 125.053 21.2 125.053 22.4C125.053 23.576 125.245 24.656 125.629 25.64C126.037 26.624 126.601 27.488 127.321 28.232C128.065 28.952 128.929 29.504 129.913 29.888C130.921 30.272 132.025 30.464 133.225 30.464C134.377 30.464 135.493 30.284 136.573 29.924C137.677 29.54 138.745 28.904 139.777 28.016L143.089 32.228C141.721 33.26 140.125 34.052 138.301 34.604C136.501 35.156 134.701 35.432 132.901 35.432ZM143.089 32.228L137.761 31.472V22.004H143.089V32.228ZM155.707 35V9.8H160.531L175.399 27.944H173.059V9.8H178.819V35H174.031L159.127 16.856H161.467V35H155.707Z" fill="black"/>
<path d="M2.988 35H1.988V36H2.988V35ZM2.988 9.8V8.8H1.988V9.8H2.988ZM21.672 11.384L21.2207 12.2764L21.2289 12.2805L21.672 11.384ZM26.568 29.06L27.4148 29.592L27.4178 29.5871L26.568 29.06ZM21.672 33.452L22.1151 34.3485L22.1233 34.3444L21.672 33.452ZM8.82 30.212H7.82V31.212H8.82V30.212ZM18.504 29.276L18.9582 30.1669L18.9648 30.1635L18.504 29.276ZM21.384 26.54L20.5234 26.0307L20.5195 26.0372L20.5158 26.0439L21.384 26.54ZM21.384 18.26L20.5158 18.7561L20.5218 18.7667L20.5281 18.7771L21.384 18.26ZM18.504 15.56L18.0361 16.4438L18.0464 16.4492L18.0568 16.4544L18.504 15.56ZM8.82 14.588V13.588H7.82V14.588H8.82ZM2.988 35H3.988V9.8H2.988H1.988V35H2.988ZM2.988 9.8V10.8H14.436V9.8V8.8H2.988V9.8ZM14.436 9.8V10.8C17.0417 10.8 19.2945 11.3022 21.2207 12.2764L21.672 11.384L22.1233 10.4916C19.8735 9.35381 17.3023 8.8 14.436 8.8V9.8ZM21.672 11.384L21.2289 12.2805C23.1605 13.2352 24.6489 14.565 25.7212 16.2719L26.568 15.74L27.4148 15.208C26.1351 13.171 24.3595 11.5968 22.1151 10.4875L21.672 11.384ZM26.568 15.74L25.7212 16.2719C26.7818 17.9602 27.332 19.9892 27.332 22.4H28.332H29.332C29.332 19.6748 28.7062 17.2638 27.4148 15.208L26.568 15.74ZM28.332 22.4H27.332C27.332 24.7845 26.7828 26.8165 25.7182 28.5329L26.568 29.06L27.4178 29.5871C28.7052 27.5115 29.332 25.1035 29.332 22.4H28.332ZM26.568 29.06L25.7212 28.528C24.6476 30.2371 23.1564 31.5806 21.2207 32.5596L21.672 33.452L22.1233 34.3444C24.3636 33.2114 26.1364 31.6269 27.4148 29.5919L26.568 29.06ZM21.672 33.452L21.2289 32.5555C19.3008 33.5085 17.045 34 14.436 34V35V36C17.299 36 19.8672 35.4595 22.1151 34.3485L21.672 33.452ZM14.436 35V34H2.988V35V36H14.436V35ZM8.82 30.212V31.212H14.148V30.212V29.212H8.82V30.212ZM14.148 30.212V31.212C15.9512 31.212 17.5656 30.8769 18.9582 30.1669L18.504 29.276L18.0498 28.3851C16.9944 28.9231 15.7048 29.212 14.148 29.212V30.212ZM18.504 29.276L18.9648 30.1635C20.3765 29.4305 21.4811 28.3856 22.2522 27.0361L21.384 26.54L20.5158 26.0439C19.9429 27.0464 19.1275 27.8255 18.0432 28.3885L18.504 29.276ZM21.384 26.54L22.2446 27.0493C23.0455 25.696 23.428 24.1343 23.428 22.4H22.428H21.428C21.428 23.8337 21.1145 25.032 20.5234 26.0307L21.384 26.54ZM22.428 22.4H23.428C23.428 20.6454 23.0471 19.0789 22.2399 17.7429L21.384 18.26L20.5281 18.7771C21.1129 19.7451 21.428 20.9386 21.428 22.4H22.428ZM21.384 18.26L22.2522 17.7639C21.4792 16.411 20.3702 15.375 18.9512 14.6656L18.504 15.56L18.0568 16.4544C19.1339 16.993 19.9448 17.757 20.5158 18.7561L21.384 18.26ZM18.504 15.56L18.9719 14.6762C17.5761 13.9373 15.9567 13.588 14.148 13.588V14.588V15.588C15.6993 15.588 16.9839 15.8867 18.0361 16.4438L18.504 15.56ZM14.148 14.588V13.588H8.82V14.588V15.588H14.148V14.588ZM8.82 14.588H7.82V30.212H8.82H9.82V14.588H8.82ZM45.1043 35H44.1043V36H45.1043V35ZM45.1043 24.704L46.0399 24.3508L44.1043 24.704H45.1043ZM46.4363 28.232L45.5794 28.7475L47.3719 27.8788L46.4363 28.232ZM35.3483 9.8V8.8H33.5798L34.4914 10.3155L35.3483 9.8ZM41.5403 9.8L42.3976 9.28518L42.1063 8.8H41.5403V9.8ZM50.0363 23.948V24.948H51.8033L50.8936 23.4332L50.0363 23.948ZM46.4723 23.948L45.616 23.4316L44.7015 24.948H46.4723V23.948ZM55.0043 9.8V8.8H54.4396L54.148 9.28358L55.0043 9.8ZM60.7283 9.8L61.5852 10.3155L62.4969 8.8H60.7283V9.8ZM49.6403 28.232L48.7017 27.8872L50.4972 28.7475L49.6403 28.232ZM50.9363 24.704H51.9363L49.9977 24.3592L50.9363 24.704ZM50.9363 35V36H51.9363V35H50.9363ZM45.1043 35H46.1043V24.704H45.1043H44.1043V35H45.1043ZM45.1043 24.704L44.1688 25.0572L45.5008 28.5852L46.4363 28.232L47.3719 27.8788L46.0399 24.3508L45.1043 24.704ZM46.4363 28.232L47.2932 27.7165L36.2052 9.28452L35.3483 9.8L34.4914 10.3155L45.5794 28.7475L46.4363 28.232ZM35.3483 9.8V10.8H41.5403V9.8V8.8H35.3483V9.8ZM41.5403 9.8L40.683 10.3148L49.179 24.4628L50.0363 23.948L50.8936 23.4332L42.3976 9.28518L41.5403 9.8ZM50.0363 23.948V22.948H46.4723V23.948V24.948H50.0363V23.948ZM46.4723 23.948L47.3287 24.4644L55.8607 10.3164L55.0043 9.8L54.148 9.28358L45.616 23.4316L46.4723 23.948ZM55.0043 9.8V10.8H60.7283V9.8V8.8H55.0043V9.8ZM60.7283 9.8L59.8714 9.28452L48.7834 27.7165L49.6403 28.232L50.4972 28.7475L61.5852 10.3155L60.7283 9.8ZM49.6403 28.232L50.579 28.5768L51.875 25.0488L50.9363 24.704L49.9977 24.3592L48.7017 27.8872L49.6403 28.232ZM50.9363 24.704H49.9363V35H50.9363H51.9363V24.704H50.9363ZM50.9363 35V34H45.1043V35V36H50.9363V35ZM68.7485 35H67.7485V36H68.7485V35ZM68.7485 31.22L67.9788 30.5816L67.7485 30.8592V31.22H68.7485ZM84.3365 12.428L85.2835 12.107L84.7091 10.4124L83.5668 11.7896L84.3365 12.428ZM85.0565 14.552V15.552H86.4513L86.0035 14.231L85.0565 14.552ZM69.0365 14.552H68.0365V15.552H69.0365V14.552ZM69.0365 9.8V8.8H68.0365V9.8H69.0365ZM90.2405 9.8H91.2405V8.8H90.2405V9.8ZM90.2405 13.58L91.0109 14.2176L91.2405 13.9401V13.58H90.2405ZM74.6885 32.372L73.7414 32.693L74.3166 34.3898L75.4589 33.0096L74.6885 32.372ZM73.9685 30.248V29.248H72.5736L73.0214 30.569L73.9685 30.248ZM90.7805 30.248H91.7805V29.248H90.7805V30.248ZM90.7805 35V36H91.7805V35H90.7805ZM68.7485 35H69.7485V31.22H68.7485H67.7485V35H68.7485ZM68.7485 31.22L69.5181 31.8584L85.1061 13.0664L84.3365 12.428L83.5668 11.7896L67.9788 30.5816L68.7485 31.22ZM84.3365 12.428L83.3894 12.749L84.1094 14.873L85.0565 14.552L86.0035 14.231L85.2835 12.107L84.3365 12.428ZM85.0565 14.552V13.552H69.0365V14.552V15.552H85.0565V14.552ZM69.0365 14.552H70.0365V9.8H69.0365H68.0365V14.552H69.0365ZM69.0365 9.8V10.8H90.2405V9.8V8.8H69.0365V9.8ZM90.2405 9.8H89.2405V13.58H90.2405H91.2405V9.8H90.2405ZM90.2405 13.58L89.4701 12.9424L73.9181 31.7344L74.6885 32.372L75.4589 33.0096L91.0109 14.2176L90.2405 13.58ZM74.6885 32.372L75.6355 32.051L74.9155 29.927L73.9685 30.248L73.0214 30.569L73.7414 32.693L74.6885 32.372ZM73.9685 30.248V31.248H90.7805V30.248V29.248H73.9685V30.248ZM90.7805 30.248H89.7805V35H90.7805H91.7805V30.248H90.7805ZM90.7805 35V34H68.7485V35V36H90.7805V35ZM101.721 35H100.721V36H101.721V35ZM101.721 9.8V8.8H100.721V9.8H101.721ZM107.553 9.8H108.553V8.8H107.553V9.8ZM107.553 35V36H108.553V35H107.553ZM101.721 35H102.721V9.8H101.721H100.721V35H101.721ZM101.721 9.8V10.8H107.553V9.8V8.8H101.721V9.8ZM107.553 9.8H106.553V35H107.553H108.553V9.8H107.553ZM107.553 35V34H101.721V35V36H107.553V35ZM127.393 34.496L127.029 35.4272L127.037 35.4304L127.045 35.4334L127.393 34.496ZM123.037 31.76L122.344 32.4811L122.352 32.4878L123.037 31.76ZM120.157 27.62L119.237 28.0106L119.242 28.0223L120.157 27.62ZM120.157 17.18L119.242 16.7777L119.237 16.7894L120.157 17.18ZM123.073 13.04L123.759 13.7678V13.7678L123.073 13.04ZM127.465 10.34L127.814 11.2775L127.825 11.273L127.465 10.34ZM139.021 10.484L138.635 11.4063L138.639 11.4082L139.021 10.484ZM143.557 13.724L144.236 14.4588L144.947 13.8023L144.314 13.07L143.557 13.724ZM139.813 17.18L139.088 17.8687L139.767 18.5834L140.492 17.9148L139.813 17.18ZM136.825 15.056L136.419 15.9698L136.428 15.9736L136.436 15.9772L136.825 15.056ZM127.321 16.568L126.626 15.8494L126.62 15.8551L126.614 15.8609L127.321 16.568ZM125.629 19.124L124.706 18.741L124.702 18.7507L124.698 18.7605L125.629 19.124ZM125.629 25.64L124.698 26.0035L124.702 26.0133L124.706 26.023L125.629 25.64ZM127.321 28.232L126.603 28.9274L126.614 28.9392L126.626 28.9506L127.321 28.232ZM129.913 29.888L129.55 30.8196L129.557 30.8225L129.913 29.888ZM136.573 29.924L136.89 30.8728L136.902 30.8685L136.573 29.924ZM139.777 28.016L140.563 27.3979L139.917 26.5763L139.125 27.258L139.777 28.016ZM143.089 32.228L143.692 33.0263L144.506 32.4119L143.875 31.6099L143.089 32.228ZM138.301 34.604L138.012 33.6469L138.008 33.6479L138.301 34.604ZM143.089 32.228L142.949 33.2181L144.089 33.3799V32.228H143.089ZM137.761 31.472H136.761V32.3401L137.621 32.4621L137.761 31.472ZM137.761 22.004V21.004H136.761V22.004H137.761ZM143.089 22.004H144.089V21.004H143.089V22.004ZM132.901 35.432V34.432C131.015 34.432 129.298 34.1368 127.742 33.5586L127.393 34.496L127.045 35.4334C128.848 36.1032 130.804 36.432 132.901 36.432V35.432ZM127.393 34.496L127.758 33.5648C126.216 32.9616 124.875 32.1172 123.723 31.0322L123.037 31.76L122.352 32.4878C123.696 33.7548 125.258 34.7344 127.029 35.4272L127.393 34.496ZM123.037 31.76L123.73 31.0389C122.602 29.9554 121.717 28.6843 121.073 27.2177L120.157 27.62L119.242 28.0223C119.989 29.7237 121.024 31.2126 122.344 32.4811L123.037 31.76ZM120.157 27.62L121.078 27.2295C120.463 25.781 120.149 24.1755 120.149 22.4H119.149H118.149C118.149 24.4165 118.507 26.291 119.237 28.0105L120.157 27.62ZM119.149 22.4H120.149C120.149 20.6245 120.463 19.019 121.078 17.5705L120.157 17.18L119.237 16.7894C118.507 18.509 118.149 20.3835 118.149 22.4H119.149ZM120.157 17.18L121.073 17.5823C121.715 16.12 122.61 14.8509 123.759 13.7678L123.073 13.04L122.388 12.3122C121.041 13.5811 119.991 15.072 119.242 16.7777L120.157 17.18ZM123.073 13.04L123.759 13.7678C124.905 12.6877 126.253 11.857 127.813 11.2774L127.465 10.34L127.117 9.40257C125.317 10.071 123.737 11.0403 122.388 12.3122L123.073 13.04ZM127.465 10.34L127.825 11.273C129.377 10.6743 131.102 10.368 133.009 10.368V9.368V8.368C130.885 8.368 128.913 8.70973 127.105 9.407L127.465 10.34ZM133.009 9.368V10.368C135.13 10.368 136.999 10.7211 138.635 11.4063L139.021 10.484L139.408 9.56166C137.491 8.7589 135.353 8.368 133.009 8.368V9.368ZM139.021 10.484L138.639 11.4082C140.301 12.0951 141.683 13.0849 142.801 14.378L143.557 13.724L144.314 13.07C142.984 11.5311 141.341 10.3609 139.403 9.55983L139.021 10.484ZM143.557 13.724L142.879 12.9892L139.135 16.4452L139.813 17.18L140.492 17.9148L144.236 14.4588L143.557 13.724ZM139.813 17.18L140.538 16.4912C139.544 15.4444 138.437 14.6508 137.214 14.1348L136.825 15.056L136.436 15.9772C137.374 16.3732 138.259 16.9956 139.088 17.8687L139.813 17.18ZM136.825 15.056L137.231 14.1422C136.014 13.6011 134.698 13.336 133.297 13.336V14.336V15.336C134.44 15.336 135.477 15.5509 136.419 15.9698L136.825 15.056ZM133.297 14.336V13.336C131.968 13.336 130.729 13.5448 129.593 13.9775L129.949 14.912L130.305 15.8465C131.185 15.5112 132.179 15.336 133.297 15.336V14.336ZM129.949 14.912L129.593 13.9775C128.464 14.4077 127.471 15.0312 126.626 15.8494L127.321 16.568L128.017 17.2866C128.659 16.6648 129.419 16.1843 130.305 15.8465L129.949 14.912ZM127.321 16.568L126.614 15.8609C125.797 16.6779 125.161 17.6415 124.706 18.741L125.629 19.124L126.553 19.507C126.913 18.6385 127.405 17.8981 128.028 17.2751L127.321 16.568ZM125.629 19.124L124.698 18.7605C124.263 19.875 124.053 21.0924 124.053 22.4H125.053H126.053C126.053 21.3076 126.228 20.341 126.561 19.4875L125.629 19.124ZM125.053 22.4H124.053C124.053 23.6863 124.264 24.8913 124.698 26.0035L125.629 25.64L126.561 25.2765C126.227 24.4207 126.053 23.4657 126.053 22.4H125.053ZM125.629 25.64L124.706 26.023C125.16 27.1197 125.793 28.0905 126.603 28.9274L127.321 28.232L128.04 27.5366C127.41 26.8855 126.914 26.1283 126.553 25.257L125.629 25.64ZM127.321 28.232L126.626 28.9506C127.467 29.7648 128.445 30.3883 129.55 30.8196L129.913 29.888L130.277 28.9564C129.414 28.6197 128.663 28.1392 128.017 27.5134L127.321 28.232ZM129.913 29.888L129.557 30.8225C130.691 31.2544 131.917 31.464 133.225 31.464V30.464V29.464C132.133 29.464 131.152 29.2896 130.269 28.9535L129.913 29.888ZM133.225 30.464V31.464C134.483 31.464 135.706 31.2671 136.89 30.8727L136.573 29.924L136.257 28.9753C135.28 29.3009 134.271 29.464 133.225 29.464V30.464ZM136.573 29.924L136.902 30.8685C138.142 30.437 139.318 29.7307 140.43 28.774L139.777 28.016L139.125 27.258C138.173 28.0773 137.212 28.643 136.245 28.9795L136.573 29.924ZM139.777 28.016L138.991 28.6341L142.303 32.8461L143.089 32.228L143.875 31.6099L140.563 27.3979L139.777 28.016ZM143.089 32.228L142.487 31.4297C141.223 32.3832 139.736 33.1252 138.012 33.6469L138.301 34.604L138.591 35.5611C140.515 34.9788 142.22 34.1368 143.692 33.0263L143.089 32.228ZM138.301 34.604L138.008 33.6479C136.299 34.1722 134.597 34.432 132.901 34.432V35.432V36.432C134.805 36.432 136.704 36.1398 138.595 35.5601L138.301 34.604ZM143.089 32.228L143.23 31.2379L137.902 30.4819L137.761 31.472L137.621 32.4621L142.949 33.2181L143.089 32.228ZM137.761 31.472H138.761V22.004H137.761H136.761V31.472H137.761ZM137.761 22.004V23.004H143.089V22.004V21.004H137.761V22.004ZM143.089 22.004H142.089V32.228H143.089H144.089V22.004H143.089ZM155.707 35H154.707V36H155.707V35ZM155.707 9.8V8.8H154.707V9.8H155.707ZM160.531 9.8L161.304 9.16618L161.004 8.8H160.531V9.8ZM175.399 27.944V28.944H177.511L176.172 27.3102L175.399 27.944ZM173.059 27.944H172.059V28.944H173.059V27.944ZM173.059 9.8V8.8H172.059V9.8H173.059ZM178.819 9.8H179.819V8.8H178.819V9.8ZM178.819 35V36H179.819V35H178.819ZM174.031 35L173.258 35.6347L173.558 36H174.031V35ZM159.127 16.856V15.856H157.011L158.354 17.4907L159.127 16.856ZM161.467 16.856H162.467V15.856H161.467V16.856ZM161.467 35V36H162.467V35H161.467ZM155.707 35H156.707V9.8H155.707H154.707V35H155.707ZM155.707 9.8V10.8H160.531V9.8V8.8H155.707V9.8ZM160.531 9.8L159.757 10.4338L174.625 28.5778L175.399 27.944L176.172 27.3102L161.304 9.16618L160.531 9.8ZM175.399 27.944V26.944H173.059V27.944V28.944H175.399V27.944ZM173.059 27.944H174.059V9.8H173.059H172.059V27.944H173.059ZM173.059 9.8V10.8H178.819V9.8V8.8H173.059V9.8ZM178.819 9.8H177.819V35H178.819H179.819V9.8H178.819ZM178.819 35V34H174.031V35V36H178.819V35ZM174.031 35L174.803 34.3653L159.899 16.2213L159.127 16.856L158.354 17.4907L173.258 35.6347L174.031 35ZM159.127 16.856V17.856H161.467V16.856V15.856H159.127V16.856ZM161.467 16.856H160.467V35H161.467H162.467V16.856H161.467ZM161.467 35V34H155.707V35V36H161.467V35Z" fill="black" mask="url(#path-1-outside-1_10_146)"/>
<path d="M56.736 70V53.2H58.512V68.464H67.92V70H56.736ZM72.9808 70L80.6608 53.2H82.4128L90.0928 70H88.2208L81.1648 54.232H81.8848L74.8288 70H72.9808ZM76.0048 65.512L76.5328 64.072H86.3008L86.8288 65.512H76.0048ZM97.6719 70V53.2H104.92C106.792 53.2 108.24 53.576 109.264 54.328C110.304 55.08 110.824 56.144 110.824 57.52C110.824 58.432 110.608 59.2 110.176 59.824C109.76 60.448 109.184 60.92 108.448 61.24C107.728 61.56 106.936 61.72 106.072 61.72L106.48 61.144C107.552 61.144 108.472 61.312 109.24 61.648C110.024 61.968 110.632 62.456 111.064 63.112C111.496 63.752 111.712 64.552 111.712 65.512C111.712 66.936 111.184 68.04 110.128 68.824C109.088 69.608 107.512 70 105.4 70H97.6719ZM99.4479 68.536H105.376C106.848 68.536 107.976 68.288 108.76 67.792C109.544 67.28 109.936 66.472 109.936 65.368C109.936 64.28 109.544 63.488 108.76 62.992C107.976 62.48 106.848 62.224 105.376 62.224H99.2559V60.76H104.8C106.144 60.76 107.184 60.504 107.92 59.992C108.672 59.48 109.048 58.72 109.048 57.712C109.048 56.688 108.672 55.928 107.92 55.432C107.184 54.92 106.144 54.664 104.8 54.664H99.4479V68.536ZM125.198 70.144C123.95 70.144 122.75 69.944 121.598 69.544C120.462 69.128 119.582 68.6 118.958 67.96L119.654 66.592C120.246 67.168 121.038 67.656 122.03 68.056C123.038 68.44 124.094 68.632 125.198 68.632C126.254 68.632 127.11 68.504 127.766 68.248C128.438 67.976 128.926 67.616 129.23 67.168C129.55 66.72 129.71 66.224 129.71 65.68C129.71 65.024 129.518 64.496 129.134 64.096C128.766 63.696 128.278 63.384 127.67 63.16C127.062 62.92 126.39 62.712 125.654 62.536C124.918 62.36 124.182 62.176 123.446 61.984C122.71 61.776 122.03 61.504 121.406 61.168C120.798 60.832 120.302 60.392 119.918 59.848C119.55 59.288 119.366 58.56 119.366 57.664C119.366 56.832 119.582 56.072 120.014 55.384C120.462 54.68 121.142 54.12 122.054 53.704C122.966 53.272 124.134 53.056 125.558 53.056C126.502 53.056 127.438 53.192 128.366 53.464C129.294 53.72 130.094 54.08 130.766 54.544L130.166 55.96C129.446 55.48 128.678 55.128 127.862 54.904C127.062 54.68 126.286 54.568 125.534 54.568C124.526 54.568 123.694 54.704 123.038 54.976C122.382 55.248 121.894 55.616 121.574 56.08C121.27 56.528 121.118 57.04 121.118 57.616C121.118 58.272 121.302 58.8 121.67 59.2C122.054 59.6 122.55 59.912 123.158 60.136C123.782 60.36 124.462 60.56 125.198 60.736C125.934 60.912 126.662 61.104 127.382 61.312C128.118 61.52 128.79 61.792 129.398 62.128C130.022 62.448 130.518 62.88 130.886 63.424C131.27 63.968 131.462 64.68 131.462 65.56C131.462 66.376 131.238 67.136 130.79 67.84C130.342 68.528 129.654 69.088 128.726 69.52C127.814 69.936 126.638 70.144 125.198 70.144Z" fill="black"/>
</svg>
